<?xml version="1.0" standalone="no"?>
<!DOCTYPE svg PUBLIC "-//W3C//DTD SVG 20010904//EN"
 "http://www.w3.org/TR/2001/REC-SVG-20010904/DTD/svg10.dtd">
<svg version="1.0" xmlns="http://www.w3.org/2000/svg"
 width="500.000000pt" height="500.000000pt" viewBox="0 0 500.000000 500.000000"
 preserveAspectRatio="xMidYMid meet">

<g transform="translate(0.000000,500.000000) scale(0.100000,-0.100000)"
fill="#000000" stroke="none">
<path d="M4030 3405 l0 -135 -37 20 c-71 38 -154 21 -209 -42 l-31 -35 -40 38
c-88 81 -225 79 -310 -5 l-41 -42 -16 27 c-23 38 -109 79 -166 79 -145 0 -243
-108 -210 -231 32 -118 180 -174 307 -115 28 14 59 36 68 50 l17 26 43 -39
c91 -84 236 -81 318 7 l29 30 35 -38 c58 -65 151 -78 215 -30 28 21 28 21 28
0 0 -18 6 -20 60 -20 47 0 60 3 60 15 0 14 3 14 25 -1 38 -25 136 -30 190 -9
52 19 75 54 75 110 0 47 -37 83 -109 108 -77 27 -60 70 19 47 49 -14 48 -14
67 26 20 42 13 50 -54 60 -115 17 -193 -27 -193 -108 0 -53 21 -76 93 -107 35
-15 48 -26 45 -38 -5 -26 -43 -28 -83 -4 l-34 20 -20 -32 -21 -32 0 268 0 267
-60 0 -60 0 0 -135z m-797 -226 c23 -28 22 -91 -1 -112 -10 -9 -32 -20 -50
-23 -26 -5 -36 -1 -62 24 -18 19 -30 41 -30 57 0 16 12 38 30 57 26 25 36 29
63 24 18 -3 40 -16 50 -27z m366 16 c31 -16 41 -33 41 -74 0 -61 -62 -96 -118
-67 -59 31 -58 109 3 144 27 15 41 15 74 -3z m402 -14 c44 -44 33 -108 -21
-131 -55 -23 -110 14 -110 73 0 80 75 113 131 58z"/>
<path d="M580 3230 l0 -282 123 4 c108 3 128 7 172 30 58 30 94 67 123 123
l21 40 1 -97 0 -98 60 0 60 0 0 95 c0 52 5 105 11 119 14 31 54 46 93 35 16
-5 33 -6 37 -4 4 3 9 -33 10 -79 4 -93 21 -128 75 -156 42 -22 189 -20 231 3
59 32 68 56 71 204 l4 133 -61 0 -61 0 0 -94 c0 -140 -19 -175 -91 -164 -37 5
-49 43 -49 154 l0 101 -90 6 c-92 7 -126 1 -149 -27 -18 -22 -31 -20 -31 4 0
18 -7 20 -59 20 -59 0 -60 0 -71 34 -15 46 -83 122 -134 149 -34 18 -62 22
-168 25 l-128 4 0 -282z m240 142 c33 -24 70 -98 70 -141 0 -81 -60 -151 -142
-165 l-38 -7 0 172 0 172 43 -7 c23 -4 53 -15 67 -24z"/>
<path d="M2245 3488 c4 -13 39 -138 78 -278 l72 -255 72 -3 72 -3 20 68 c11
37 30 105 43 151 13 45 26 82 29 82 3 0 16 -37 28 -82 12 -46 31 -114 42 -151
l20 -68 72 3 72 3 71 251 c39 138 74 263 78 278 l6 26 -69 0 -70 0 -9 -32 c-5
-18 -26 -104 -47 -190 -22 -86 -41 -156 -43 -154 -2 3 -35 122 -93 339 -10 36
-11 37 -59 37 -38 0 -50 -4 -54 -17 -2 -10 -24 -90 -47 -178 -23 -88 -45 -166
-48 -172 -4 -7 -24 58 -45 145 -22 86 -43 172 -48 190 l-9 32 -70 0 c-67 0
-69 -1 -64 -22z"/>
<path d="M1837 3290 c-31 -17 -37 -17 -37 -5 0 12 -13 15 -60 15 l-60 0 0
-175 0 -175 60 0 60 0 0 113 c0 132 8 150 60 145 49 -4 60 -32 60 -155 l0
-103 60 0 60 0 0 118 c0 130 5 142 55 142 50 0 55 -12 55 -142 l0 -118 66 0
66 0 -4 138 c-3 112 -7 144 -21 166 -44 67 -165 74 -217 11 -12 -14 -15 -14
-34 4 -47 44 -111 52 -169 21z"/>
<path d="M2972 2554 c-35 -24 -46 -51 -32 -84 24 -58 103 -60 129 -3 16 34 -1
76 -35 92 -32 14 -35 14 -62 -5z"/>
<path d="M940 2280 l0 -280 160 0 160 0 0 55 0 55 -95 0 -95 0 0 60 0 60 90 0
90 0 0 55 0 55 -90 0 -90 0 0 55 0 55 95 0 95 0 0 55 0 55 -160 0 -160 0 0
-280z"/>
<path d="M1444 2350 c-12 -5 -25 -13 -29 -19 -9 -16 -25 -13 -25 4 0 12 -13
15 -60 15 l-60 0 0 -175 0 -175 60 0 60 0 0 113 c0 125 9 147 63 147 45 0 57
-31 57 -152 l0 -108 60 0 60 0 0 111 c0 129 7 149 55 149 54 0 65 -25 65 -152
l0 -108 60 0 60 0 0 128 c0 101 -4 134 -18 162 -35 72 -136 90 -206 36 -30
-23 -35 -24 -47 -10 -32 39 -105 55 -155 34z"/>
<path d="M2037 2340 c-31 -17 -37 -17 -37 -5 0 12 -13 15 -60 15 l-60 0 0
-265 0 -265 60 0 60 0 0 104 0 104 37 -19 c71 -36 160 -17 209 45 l25 32 38
-37 c96 -90 277 -72 341 34 l20 32 0 -57 0 -58 60 0 60 0 0 104 c0 123 12 148
72 148 20 0 42 -3 48 -7 7 -4 16 -1 21 6 5 8 9 -39 9 -118 l0 -133 60 0 60 0
0 174 0 173 -97 7 c-92 6 -98 6 -135 -19 -36 -24 -38 -24 -38 -5 0 18 -7 20
-60 20 l-60 0 0 -57 0 -56 -29 40 c-36 49 -89 75 -163 81 -48 4 -67 0 -113
-23 -31 -15 -63 -38 -72 -51 l-16 -25 -30 37 c-53 64 -138 82 -210 44z m76
-91 c53 -24 60 -87 17 -131 -26 -25 -36 -29 -63 -24 -95 18 -87 160 10 165 7
1 23 -4 36 -10z m403 -13 c21 -18 28 -32 28 -61 0 -72 -81 -108 -135 -59 -40
36 -29 106 21 131 36 18 55 16 86 -11z"/>
<path d="M3644 2350 c-12 -5 -25 -13 -29 -19 -9 -16 -25 -13 -25 4 0 12 -13
15 -60 15 l-60 0 0 -175 0 -175 60 0 60 0 0 113 c0 125 9 147 63 147 45 0 57
-31 57 -152 l0 -108 60 0 60 0 0 111 c0 129 7 149 55 149 54 0 65 -25 65 -152
l0 -108 60 0 60 0 0 128 c0 101 -4 134 -18 162 -35 72 -136 90 -206 36 -30
-23 -35 -24 -47 -10 -32 39 -105 55 -155 34z"/>
<path d="M3082 2216 c3 -148 13 -175 74 -206 42 -22 189 -20 231 3 59 32 68
56 71 204 l4 133 -61 0 -61 0 0 -94 c0 -140 -19 -175 -91 -164 -37 5 -49 43
-49 156 l0 102 -61 0 -61 0 4 -134z"/>
<path d="M2120 1550 c0 -48 1 -50 28 -50 34 0 52 16 52 46 0 30 -25 54 -56 54
-22 0 -24 -4 -24 -50z m64 14 c9 -22 -11 -54 -34 -54 -16 0 -20 7 -20 35 0 30
3 35 24 35 13 0 27 -7 30 -16z"/>
<path d="M2307 1563 c-11 -10 -8 -51 3 -58 6 -4 10 6 10 24 0 20 6 31 18 34
14 4 13 5 -4 6 -11 0 -24 -2 -27 -6z"/>
<path d="M2450 1548 c0 -33 14 -51 36 -46 14 2 19 13 21 38 1 33 1 33 -5 6 -9
-38 -32 -47 -32 -12 0 13 -4 28 -10 31 -6 3 -10 -4 -10 -17z"/>
<path d="M2621 1532 c1 -36 2 -36 8 -7 3 17 13 30 21 30 8 0 18 -13 21 -30 l7
-30 1 33 c1 43 31 45 31 2 0 -16 5 -30 10 -30 12 0 13 40 2 56 -4 6 -28 12
-54 12 l-48 1 1 -37z"/>
<path d="M2840 1555 c0 -9 7 -18 15 -21 24 -10 17 -26 -7 -19 -18 6 -20 4 -12
-5 14 -15 46 -10 52 8 2 7 -5 16 -17 19 -26 7 -27 20 -3 26 13 4 11 5 -5 6
-15 1 -23 -5 -23 -14z"/>
<path d="M2330 726 c0 -7 10 -21 23 -30 l22 -17 -22 5 c-13 2 -23 0 -23 -5 0
-13 38 -11 46 2 4 7 -3 20 -16 29 -22 17 -23 18 -4 23 16 4 16 5 -3 6 -14 1
-23 -5 -23 -13z"/>
<path d="M2400 711 c0 -17 5 -33 10 -36 6 -4 10 8 10 29 0 20 -4 36 -10 36 -5
0 -10 -13 -10 -29z"/>
<path d="M2440 704 c0 -21 4 -33 10 -29 6 3 10 17 10 31 0 37 28 30 33 -8 4
-32 4 -32 5 5 2 35 0 37 -28 37 -28 0 -30 -3 -30 -36z"/>
<path d="M2534 726 c-14 -37 22 -74 47 -49 6 6 1 9 -13 9 -33 -1 -31 36 2 45
l25 7 -28 1 c-16 1 -30 -5 -33 -13z"/>
<path d="M2614 726 c-15 -38 22 -74 49 -47 7 7 4 8 -10 5 -12 -3 -24 -1 -27 5
-5 7 3 11 19 11 20 0 26 4 23 18 -4 22 -46 29 -54 8z m46 -6 c0 -5 -7 -10 -15
-10 -8 0 -15 5 -15 10 0 6 7 10 15 10 8 0 15 -4 15 -10z"/>
<path d="M2357 633 c-13 -13 -7 -21 13 -16 11 3 20 1 20 -4 0 -6 -9 -22 -20
-36 -26 -33 -25 -37 8 -36 15 1 20 3 10 6 -15 4 -15 6 0 32 8 15 13 35 9 44
-6 17 -28 23 -40 10z"/>
<path d="M2444 632 c-36 -23 -20 -96 19 -90 17 2 23 11 25 36 5 45 -17 72 -44
54z m31 -47 c0 -43 -29 -40 -33 3 -3 28 0 33 15 30 13 -2 18 -12 18 -33z"/>
<path d="M2533 633 c-21 -8 -15 -22 7 -16 13 4 20 0 20 -9 0 -8 -9 -23 -20
-33 -28 -26 -25 -35 13 -34 17 1 24 3 15 6 -22 6 -22 8 -2 38 13 20 14 28 4
40 -13 16 -17 17 -37 8z"/>
<path d="M2600 630 c0 -5 7 -10 15 -10 8 0 18 0 22 -1 4 0 9 4 11 10 2 6 -8
11 -22 11 -14 0 -26 -4 -26 -10z"/>
<path d="M2615 600 c-4 -6 1 -10 9 -10 10 0 16 -9 16 -21 0 -16 -5 -20 -20
-16 -11 3 -20 1 -20 -4 0 -14 36 -11 49 5 6 7 9 20 5 29 -7 19 -31 29 -39 17z"/>
</g>
</svg>
